<svg width="24" height="25" viewBox="0 0 24 25" fill="none" xmlns="http://www.w3.org/2000/svg">
  <path fill-rule="evenodd" clip-rule="evenodd" d="M14 21.4691H6C4.895 21.4691 4 20.5741 4 19.4691V9.46906C4 8.36406 4.895 7.46906 6 7.46906H14C15.105 7.46906 16 8.36406 16 9.46906V19.4691C16 20.5741 15.105 21.4691 14 21.4691Z" stroke="#CFD1D2" stroke-width="1.5" stroke-linecap="round" stroke-linejoin="round"/>
  <path d="M16 17.4691H18C19.105 17.4691 20 16.5741 20 15.4691V5.46906C20 4.36406 19.105 3.46906 18 3.46906H10C8.895 3.46906 8 4.36406 8 5.46906V7.46906" stroke="#CFD1D2" stroke-width="1.5" stroke-linecap="round" stroke-linejoin="round"/>
  <path d="M8 12.4691H12" stroke="#CFD1D2" stroke-width="1.5" stroke-linecap="round" stroke-linejoin="round"/>
  <path d="M8 16.4691H12" stroke="#CFD1D2" stroke-width="1.5" stroke-linecap="round" stroke-linejoin="round"/>
</svg>
