<svg width="24" height="25" viewBox="0 0 24 25" fill="none" xmlns="http://www.w3.org/2000/svg">
<path d="M21.0037 9.96799V6.96674C21.0037 5.58545 19.884 4.4657 18.5027 4.4657H5.49729C4.116 4.4657 2.99625 5.58545 2.99625 6.96674V10.4682" stroke="#005FBB" stroke-width="1.5" stroke-linecap="round" stroke-linejoin="round"/>
<path d="M21.0038 14.9701V17.9713C21.0038 19.3526 19.884 20.4724 18.5027 20.4724H15.0013" stroke="#005FBB" stroke-width="1.5" stroke-linecap="round" stroke-linejoin="round"/>
<path fill-rule="evenodd" clip-rule="evenodd" d="M18.5027 9.96802H21.0037C21.5563 9.96802 22.0042 10.4159 22.0042 10.9684V13.9697C22.0042 14.5222 21.5563 14.9701 21.0037 14.9701H18.5027C17.1214 14.9701 16.0017 13.8503 16.0017 12.4691V12.4691C16.0017 11.0878 17.1214 9.96802 18.5027 9.96802V9.96802Z" stroke="#005FBB" stroke-width="1.5" stroke-linecap="round" stroke-linejoin="round"/>
<path d="M12 16.4707H1.99583" stroke="#005FBB" stroke-width="1.5" stroke-linecap="round" stroke-linejoin="round"/>
<path fill-rule="evenodd" clip-rule="evenodd" d="M9.99917 13.4695H3.99667C2.89164 13.4695 1.99583 14.3653 1.99583 15.4703V19.472C1.99583 20.577 2.89164 21.4728 3.99667 21.4728H9.99917C11.1042 21.4728 12 20.577 12 19.472V15.4703C12 14.3653 11.1042 13.4695 9.99917 13.4695Z" stroke="#005FBB" stroke-width="1.5" stroke-linecap="round" stroke-linejoin="round"/>
</svg>
